<svg xmlns="http://www.w3.org/2000/svg" viewBox="0 0 512 512">
  <path fill="currentColor"
     d="M 296.89036,232.44819 201.7,131 c -15.8,-8.8 -35.7,2.5 -35.7,21 v 208 c 0,18.4 19.8,29.8 35.7,21 l 95.19036,-106.55181 c 16.4,-9.1 16.4,-32.8 0,-42 z M 504,256 C 504,119 393,8 256,8 119,8 8,119 8,256 8,393 119,504 256,504 393,504 504,393 504,256 Z M 56,256 C 56,145.5 145.5,56 256,56 366.5,56 456,145.5 456,256 456,366.5 366.5,456 256,456 145.5,456 56,366.5 56,256 Z"
   />
  <path fill="currentColor"
     d="M 340.54648,144.29612 V 367.2166 c 0,8.80001 -7.2,16 -16,16 h -13.80241 c -8.8,0 -16,-7.19999 -16,-16 V 144.29612 c 0,-8.79999 7.2,-15.99999 16,-15.99999 h 13.80241 c 8.8,0 16,7.2 16,15.99999 z"
    />
</svg>
