<svg xmlns="http://www.w3.org/2000/svg" viewBox="0 0 512 512">
  <path
     fill="currentColor"
     d="M 215.10964,232.44819 310.3,131 c 15.8,-8.8 35.7,2.5 35.7,21 v 208 c 0,18.4 -19.8,29.8 -35.7,21 L 215.10964,274.44819 c -16.4,-9.1 -16.4,-32.8 0,-42 z M 8,256 C 8,119 119,8 256,8 393,8 504,119 504,256 504,393 393,504 256,504 119,504 8,393 8,256 Z m 448,0 C 456,145.5 366.5,56 256,56 145.5,56 56,145.5 56,256 c 0,110.5 89.5,200 200,200 110.5,0 200,-89.5 200,-200 z"
     />
  <path
     fill="currentColor"
     d="M 225.4149,144.29612 V 367.2166 c 0,8.80001 -7.2,16 -16,16 h -13.80241 c -8.8,0 -16,-7.19999 -16,-16 V 144.29612 c 0,-8.79999 7.2,-15.99999 16,-15.99999 h 13.80241 c 8.8,0 16,7.2 16,15.99999 z"
      />
</svg>
