<svg xmlns="http://www.w3.org/2000/svg" viewBox="0 0 1000 1000">
<g fill="currentColor">
<!--    <path d="M500,990c-66.1,0-130.3-13-190.7-38.5c-58.4-24.7-110.8-60-155.7-105c-45-45-80.3-97.4-105-155.7C23,630.3,10,566.1,10,500c0-66.1,13-130.3,38.5-190.7c24.7-58.3,60-110.8,105-155.7s97.4-80.3,155.7-105C369.7,23,433.9,10,500,10c66.1,0,130.3,13,190.7,38.5c58.3,24.7,110.8,60,155.8,105c45,45,80.3,97.4,105,155.7C977,369.7,990,433.9,990,500c0,66.1-13,130.3-38.5,190.7c-24.7,58.4-60,110.8-105,155.8c-45,45-97.4,80.3-155.8,105C630.3,977,566.1,990,500,990z M500,31.7C241.8,31.7,31.7,241.8,31.7,500c0,258.2,210.1,468.3,468.3,468.3c258.2,0,468.3-210.1,468.3-468.3C968.3,241.8,758.2,31.7,500,31.7z"/>-->
    <path d="M713.4,367.7c-2.8,0-5.6-1.1-7.7-3.2l-96.4-96.4c-4.2-4.2-4.2-11.1,0-15.4c4.2-4.2,11.1-4.2,15.4,0l96.4,96.4c4.2,4.2,4.2,11.1,0,15.4C718.9,366.6,716.2,367.7,713.4,367.7z"/>
    <path d="M619.7,367.3c-2.8,0-5.6-1.1-7.7-3.2c-4.2-4.2-4.2-11.1,0-15.4l96-96c4.2-4.2,11.1-4.2,15.4,0c4.2,4.2,4.2,11.1,0,15.4l-96,96C625.2,366.2,622.4,367.3,619.7,367.3z"/>
    <path d="M548.6,750.4c-2.5,0-5-0.9-7-2.6L380,611c-2.4-2.1-3.8-5.1-3.8-8.3V397.3c0-3.2,1.4-6.2,3.8-8.3l161.6-136.9c3.2-2.7,7.8-3.3,11.6-1.6c3.8,1.8,6.3,5.6,6.3,9.9v479.1c0,4.2-2.5,8.1-6.3,9.9C551.7,750.1,550.1,750.4,548.6,750.4z M397.9,597.6l139.8,118.5V283.9L397.9,402.4V597.6z"/>
    <path d="M387,613.5h-68.4c-24.9,0-45.1-20.2-45.1-45.1V431.6c0-24.9,20.2-45.1,45.1-45.1H387c6,0,10.9,4.9,10.9,10.9v205.3C397.9,608.7,393,613.5,387,613.5z M318.6,408.2c-12.9,0-23.4,10.5-23.4,23.4v136.9c0,12.9,10.5,23.4,23.4,23.4h57.6V408.2H318.6z"/>
    <path d="M548.6,618.7c-2,0-4-0.5-5.7-1.6c-3.2-2-5.2-5.5-5.2-9.2l0-221.2c0-3.8,2-7.3,5.2-9.2c3.2-2,7.2-2.2,10.6-0.5c45.9,23,74.4,69.1,74.4,120.3c0,51.2-28.5,97.3-74.4,120.3C551.9,618.4,550.2,618.7,548.6,618.7z M559.4,405.9v182.7c29.2-21,46.7-54.6,46.7-91.4C606.2,460.5,588.6,426.9,559.4,405.9z"/></g>
</svg>
